# xmcd
#
# Track frame offsets: 
#        150
#        15587
#        31224
#        51261
#        68314
#        83614
#        100079
#        118106
#        130778
#        132971
#        146029
#
# Disc length: 2215 seconds
#
# Revision: 0
# Processed by: cddbd v1.5.1PL0 Copyright (c) Steve Scherf et al.
# Submitted via: ExactAudioCopy v0.95a5
#
DISCID=8908a50b
DTITLE=Alison Krauss - Forget About It
DYEAR=1900
DGENRE=Country
TTITLE0=Stay
TTITLE1=Forget About It
TTITLE2=It Wouldn't Have Made Any Difference
TTITLE3=Maybe
TTITLE4=Empty Hearts
TTITLE5=Never Get Off The Ground
TTITLE6=Ghost In This House
TTITLE7=It Don't Matter Now
TTITLE8=That kind Of Love
TTITLE9=Could You Lie
TTITLE10=Dreaming My Dreams With You
EXTD=
EXTT0=
EXTT1=
EXTT2=
EXTT3=
EXTT4=
EXTT5=
EXTT6=
EXTT7=
EXTT8=
EXTT9=
EXTT10=
PLAYORDER=
